Format : Matroska
     File size : 3.51 GiB
     Duration : 1h 40mn
     Overall bit rate : 5 015 Kbps
     Writing application : AVI-Mux GUI 1.17.8, Aug 30 2008  12:36:58
     Writing library : matroska muxer by Alexander Noe, build date Aug 30 2008
  Video #1
     ID : 1
     Format : AVC
     Format/Info : Advanced Video Codec
     Format profile : Baseline@L5.0
     Format settings, CABAC : No
     Format settings, ReFrames : 8 frames
     Format settings, GOP : M=1, N=13
     Codec ID : H264
     Duration : 1h 40mn
     Bit rate : 4 723 Kbps
     Width : 1 920 pixels
     Height : 1 080 pixels
     Display aspect ratio : 16:9
     Frame rate mode : Variable
     Frame rate : 30.000 fps
     Color space : YUV
     Chroma subsampling : 4:2:0
     Bit depth : 8 bits
     Scan type : Progressive
     Bits/(Pixel*Frame) : 0.076
     Stream size : 3.31 GiB (94%)
     Language : English
  Audio #2
     ID : 2
     Format : AC-3
     Format/Info : Audio Coding 3
     Mode extension : CM (complete main)
     Codec ID : A_AC3
     Duration : 1h 40mn
     Bit rate mode : Constant
     Bit rate : 192 Kbps
     Channel(s) : 6 channels
     Channel positions : Front: L C R, Side: L R, LFE
     Sampling rate : 48.0 KHz
     Bit depth : 16 bits
     Compression mode : Lossy
     Stream size : 138 MiB (4%)
     Language : English

Screens: 
http://i.imgur.com/JPgZyjz.jpg 
http://i.imgur.com/XUAayFu.jpg 
http://i.imgur.com/yJ8Rqgp.jpg 
http://i.imgur.com/kBkB0qk.jpg 
http://i.imgur.com/Jo2mBIZ.jpg